<svg width="20" height="17" viewBox="0 0 20 17" fill="none" xmlns="http://www.w3.org/2000/svg">
<g filter="url(#filter0_d_280_100)">
<mask id="path-1-inside-1_280_100" fill="white">
<path d="M14.875 0H5.125C4.50391 0 4 0.503906 4 1.125V7.875C4 8.49609 4.50391 9 5.125 9H14.875C15.4961 9 16 8.49609 16 7.875V1.125C16 0.503906 15.4961 0 14.875 0ZM5.125 0.75H14.875C15.0813 0.75 15.25 0.91875 15.25 1.125V2.09531C14.7367 2.52891 14.0031 3.12656 11.7203 4.93828C11.3242 5.25234 10.5437 6.00938 10 6C9.45625 6.00938 8.67344 5.25234 8.27969 4.93828C5.99688 3.12656 5.26328 2.52891 4.75 2.09531V1.125C4.75 0.91875 4.91875 0.75 5.125 0.75ZM14.875 8.25H5.125C4.91875 8.25 4.75 8.08125 4.75 7.875V3.07031C5.28437 3.50859 6.12812 4.18594 7.81328 5.52422C8.29375 5.90859 9.14219 6.75469 10 6.75C10.8531 6.75703 11.6945 5.91797 12.1867 5.52422C13.8719 4.18594 14.7156 3.50859 15.25 3.07031V7.875C15.25 8.08125 15.0813 8.25 14.875 8.25Z"/>
</mask>
<path d="M14.875 0H5.125C4.50391 0 4 0.503906 4 1.125V7.875C4 8.49609 4.50391 9 5.125 9H14.875C15.4961 9 16 8.49609 16 7.875V1.125C16 0.503906 15.4961 0 14.875 0ZM5.125 0.75H14.875C15.0813 0.75 15.25 0.91875 15.25 1.125V2.09531C14.7367 2.52891 14.0031 3.12656 11.7203 4.93828C11.3242 5.25234 10.5437 6.00938 10 6C9.45625 6.00938 8.67344 5.25234 8.27969 4.93828C5.99688 3.12656 5.26328 2.52891 4.75 2.09531V1.125C4.75 0.91875 4.91875 0.75 5.125 0.75ZM14.875 8.25H5.125C4.91875 8.25 4.75 8.08125 4.75 7.875V3.07031C5.28437 3.50859 6.12812 4.18594 7.81328 5.52422C8.29375 5.90859 9.14219 6.75469 10 6.75C10.8531 6.75703 11.6945 5.91797 12.1867 5.52422C13.8719 4.18594 14.7156 3.50859 15.25 3.07031V7.875C15.25 8.08125 15.0813 8.25 14.875 8.25Z" fill="#FCFCFC"/>
<path d="M15.25 2.09531L15.8953 2.85923L16.25 2.55961V2.09531H15.25ZM11.7203 4.93828L12.3416 5.72186L12.342 5.72158L11.7203 4.93828ZM10 6L10.0172 5.00015L10 4.99985L9.98276 5.00015L10 6ZM8.27969 4.93828L8.90325 4.1565L8.90134 4.15499L8.27969 4.93828ZM4.75 2.09531H3.75V2.55961L4.10468 2.85923L4.75 2.09531ZM4.75 3.07031L5.38416 2.29711L3.75 0.956813V3.07031H4.75ZM7.81328 5.52422L8.43798 4.74335L8.43518 4.74112L7.81328 5.52422ZM10 6.75L10.0082 5.74994L9.99454 5.75001L10 6.75ZM12.1867 5.52422L11.5648 4.74112L11.562 4.74335L12.1867 5.52422ZM15.25 3.07031H16.25V0.956813L14.6158 2.29711L15.25 3.07031ZM14.875 -1H5.125V1H14.875V-1ZM5.125 -1C3.95162 -1 3 -0.0483785 3 1.125H5C5 1.05619 5.05619 1 5.125 1V-1ZM3 1.125V7.875H5V1.125H3ZM3 7.875C3 9.04838 3.95162 10 5.125 10V8C5.05619 8 5 7.94381 5 7.875H3ZM5.125 10H14.875V8H5.125V10ZM14.875 10C16.0484 10 17 9.04838 17 7.875H15C15 7.94381 14.9438 8 14.875 8V10ZM17 7.875V1.125H15V7.875H17ZM17 1.125C17 -0.0483785 16.0484 -1 14.875 -1V1C14.9438 1 15 1.05619 15 1.125H17ZM5.125 1.75H14.875V-0.25H5.125V1.75ZM14.875 1.75C14.529 1.75 14.25 1.47103 14.25 1.125H16.25C16.25 0.366465 15.6335 -0.25 14.875 -0.25V1.75ZM14.25 1.125V2.09531H16.25V1.125H14.25ZM14.6047 1.3314C14.1048 1.75371 13.3827 2.34232 11.0987 4.15499L12.342 5.72158C14.6236 3.9108 15.3687 3.30411 15.8953 2.85923L14.6047 1.3314ZM11.099 4.15471C10.9864 4.24404 10.8375 4.37196 10.719 4.47119C10.5868 4.58189 10.4557 4.68832 10.3274 4.78169C10.1962 4.87711 10.0902 4.94222 10.0109 4.98018C9.9205 5.02341 9.93237 4.99869 10.0172 5.00015L9.98276 6.99985C10.3395 7.006 10.6528 6.89016 10.8741 6.78428C11.1064 6.67311 11.3223 6.5311 11.5037 6.39917C11.8204 6.16882 12.2385 5.8036 12.3416 5.72186L11.099 4.15471ZM9.98276 5.00015C10.0675 4.99869 10.0791 5.02333 9.98839 4.97998C9.90882 4.94195 9.80261 4.87677 9.6714 4.78143C9.54303 4.68815 9.41206 4.5818 9.28033 4.47145C9.16274 4.37294 9.01374 4.24464 8.90325 4.15651L7.65613 5.72006C7.76598 5.80767 8.17256 6.16458 8.49578 6.39943C8.67747 6.53144 8.89352 6.67338 9.12596 6.78448C9.34726 6.89024 9.66064 7.006 10.0172 6.99985L9.98276 5.00015ZM8.90134 4.15499C6.61734 2.34232 5.89524 1.75371 5.39532 1.3314L4.10468 2.85923C4.63132 3.30411 5.37641 3.9108 7.65804 5.72158L8.90134 4.15499ZM5.75 2.09531V1.125H3.75V2.09531H5.75ZM5.75 1.125C5.75 1.47103 5.47103 1.75 5.125 1.75V-0.25C4.36647 -0.25 3.75 0.366465 3.75 1.125H5.75ZM14.875 7.25H5.125V9.25H14.875V7.25ZM5.125 7.25C5.47103 7.25 5.75 7.52897 5.75 7.875H3.75C3.75 8.63353 4.36647 9.25 5.125 9.25V7.25ZM5.75 7.875V3.07031H3.75V7.875H5.75ZM4.11584 3.84351C4.65704 4.28739 5.50647 4.96923 7.19138 6.30731L8.43518 4.74112C6.74978 3.40265 5.91171 2.72979 5.38416 2.29711L4.11584 3.84351ZM7.18859 6.30509C7.34663 6.43152 7.78509 6.82478 8.20134 7.10892C8.62923 7.40101 9.26578 7.75403 10.0055 7.74999L9.99454 5.75001C9.87641 5.75066 9.65983 5.68297 9.32893 5.45709C8.9864 5.22327 8.7604 5.00129 8.43798 4.74335L7.18859 6.30509ZM9.99176 7.74997C10.73 7.75605 11.3645 7.40517 11.7921 7.1136C12.2081 6.82996 12.6464 6.43706 12.8114 6.30509L11.562 4.74335C11.2348 5.00512 11.0064 5.22863 10.6653 5.4612C10.3359 5.68584 10.1231 5.75098 10.0082 5.75003L9.99176 7.74997ZM12.8086 6.30731C14.4935 4.96923 15.343 4.28739 15.8842 3.84351L14.6158 2.29711C14.0883 2.72979 13.2502 3.40265 11.5648 4.74112L12.8086 6.30731ZM14.25 3.07031V7.875H16.25V3.07031H14.25ZM14.25 7.875C14.25 7.52897 14.529 7.25 14.875 7.25V9.25C15.6335 9.25 16.25 8.63353 16.25 7.875H14.25Z" fill="white" mask="url(#path-1-inside-1_280_100)"/>
</g>
<defs>
<filter id="filter0_d_280_100" x="0" y="0" width="20" height="17" filterUnits="userSpaceOnUse" color-interpolation-filters="sRGB">
<feFlood flood-opacity="0" result="BackgroundImageFix"/>
<feColorMatrix in="SourceAlpha" type="matrix" values="0 0 0 0 0 0 0 0 0 0 0 0 0 0 0 0 0 0 127 0" result="hardAlpha"/>
<feOffset dy="4"/>
<feGaussianBlur stdDeviation="2"/>
<feColorMatrix type="matrix" values="0 0 0 0 0 0 0 0 0 0 0 0 0 0 0 0 0 0 0.25 0"/>
<feBlend mode="normal" in2="BackgroundImageFix" result="effect1_dropShadow_280_100"/>
<feBlend mode="normal" in="SourceGraphic" in2="effect1_dropShadow_280_100" result="shape"/>
</filter>
</defs>
</svg>
